<svg width="601" height="239" viewBox="0 0 601 239" fill="none" xmlns="http://www.w3.org/2000/svg">
<rect x="4" y="4" width="212" height="212" rx="46" stroke="#414141" stroke-width="8"/>
<path d="M285.42 93H281.71L275.9 78.51H253.85L248.04 93H244.33L262.81 46.8H266.94L285.42 93ZM255.11 75.29H274.64L264.84 50.23L255.11 75.29ZM313.28 93V58H316.43L316.64 65.28C317.667 62.76 319.323 60.8 321.61 59.4C323.943 58 326.533 57.3 329.38 57.3C332.413 57.3 335.027 58.0233 337.22 59.47C339.46 60.9167 341 63.04 341.84 65.84C342.447 64.0667 343.427 62.55 344.78 61.29C346.133 59.9833 347.72 58.98 349.54 58.28C351.36 57.58 353.25 57.23 355.21 57.23C357.637 57.23 359.83 57.72 361.79 58.7C363.797 59.6333 365.383 61.08 366.55 63.04C367.763 64.9533 368.37 67.3567 368.37 70.25V92.93H364.87V70.6C364.87 67.1467 363.937 64.58 362.07 62.9C360.25 61.1733 357.823 60.31 354.79 60.31C352.597 60.31 350.567 60.8467 348.7 61.92C346.833 62.9467 345.34 64.4167 344.22 66.33C343.147 68.1967 342.61 70.3667 342.61 72.84V93H339.11V70.67C339.11 67.2167 338.177 64.65 336.31 62.97C334.443 61.2433 332.017 60.38 329.03 60.38C326.93 60.38 324.947 60.8933 323.08 61.92C321.213 62.9467 319.697 64.4167 318.53 66.33C317.363 68.2433 316.78 70.53 316.78 73.19V93H313.28ZM400.777 107.7V58H403.927L404.207 67.73L403.717 67.17C404.324 65.1633 405.257 63.4133 406.517 61.92C407.824 60.4267 409.411 59.2833 411.277 58.49C413.144 57.6967 415.174 57.3 417.367 57.3C420.354 57.3 423.037 58.0233 425.417 59.47C427.797 60.9167 429.687 62.9933 431.087 65.7C432.487 68.4067 433.187 71.6733 433.187 75.5C433.187 79.28 432.487 82.5467 431.087 85.3C429.687 88.0067 427.774 90.0833 425.347 91.53C422.967 92.9767 420.261 93.7 417.227 93.7C414.007 93.7 411.207 92.86 408.827 91.18C406.447 89.4533 404.791 87.1433 403.857 84.25L404.277 83.62V107.7H400.777ZM416.807 90.62C420.774 90.62 423.901 89.2667 426.187 86.56C428.521 83.8533 429.687 80.1667 429.687 75.5C429.687 70.8333 428.544 67.1467 426.257 64.44C423.971 61.7333 420.867 60.38 416.947 60.38C414.474 60.38 412.281 61.01 410.367 62.27C408.501 63.4833 407.007 65.2333 405.887 67.52C404.814 69.76 404.277 72.42 404.277 75.5C404.277 78.5333 404.814 81.1933 405.887 83.48C406.961 85.7667 408.431 87.54 410.297 88.8C412.211 90.0133 414.381 90.62 416.807 90.62ZM477.877 93.7C474.657 93.7 471.787 92.9767 469.267 91.53C466.747 90.0833 464.763 88.0067 463.317 85.3C461.917 82.5467 461.217 79.28 461.217 75.5C461.217 71.72 461.917 68.4767 463.317 65.77C464.763 63.0167 466.7 60.9167 469.127 59.47C471.553 58.0233 474.33 57.3 477.457 57.3C480.63 57.3 483.337 58 485.577 59.4C487.817 60.8 489.543 62.76 490.757 65.28C491.97 67.7533 492.577 70.6233 492.577 73.89C492.577 74.31 492.553 74.73 492.507 75.15C492.507 75.5233 492.483 75.8733 492.437 76.2H463.387V73.05H490.897L489.147 73.54C489.1 69.5267 488.027 66.33 485.927 63.95C483.873 61.57 481.027 60.38 477.387 60.38C474.867 60.38 472.65 60.9867 470.737 62.2C468.823 63.3667 467.33 65.0933 466.257 67.38C465.183 69.62 464.647 72.3267 464.647 75.5C464.647 78.6267 465.183 81.3333 466.257 83.62C467.377 85.9067 468.917 87.6567 470.877 88.87C472.883 90.0367 475.193 90.62 477.807 90.62C480.513 90.62 482.823 90.0367 484.737 88.87C486.697 87.7033 488.213 86.0933 489.287 84.04L492.087 85.65C491.247 87.33 490.127 88.7767 488.727 89.99C487.327 91.1567 485.717 92.0667 483.897 92.72C482.077 93.3733 480.07 93.7 477.877 93.7ZM522.862 93V58H525.802L526.222 65.35C527.108 62.8767 528.532 60.9167 530.492 59.47C532.452 58.0233 534.808 57.3 537.562 57.3C538.495 57.3 539.335 57.3933 540.082 57.58C540.828 57.7667 541.435 58.07 541.902 58.49L541.132 61.57C540.618 61.2433 540.058 60.9867 539.452 60.8C538.845 60.6133 537.935 60.52 536.722 60.52C534.948 60.52 533.268 61.08 531.682 62.2C530.095 63.2733 528.812 64.79 527.832 66.75C526.852 68.6633 526.362 70.88 526.362 73.4V93H522.862ZM582.256 93.7C579.036 93.7 576.166 92.9767 573.646 91.53C571.126 90.0833 569.143 88.0067 567.696 85.3C566.296 82.5467 565.596 79.28 565.596 75.5C565.596 71.72 566.296 68.4767 567.696 65.77C569.143 63.0167 571.079 60.9167 573.506 59.47C575.933 58.0233 578.709 57.3 581.836 57.3C585.009 57.3 587.716 58 589.956 59.4C592.196 60.8 593.923 62.76 595.136 65.28C596.349 67.7533 596.956 70.6233 596.956 73.89C596.956 74.31 596.933 74.73 596.886 75.15C596.886 75.5233 596.863 75.8733 596.816 76.2H567.766V73.05H595.276L593.526 73.54C593.479 69.5267 592.406 66.33 590.306 63.95C588.253 61.57 585.406 60.38 581.766 60.38C579.246 60.38 577.029 60.9867 575.116 62.2C573.203 63.3667 571.709 65.0933 570.636 67.38C569.563 69.62 569.026 72.3267 569.026 75.5C569.026 78.6267 569.563 81.3333 570.636 83.62C571.756 85.9067 573.296 87.6567 575.256 88.87C577.263 90.0367 579.573 90.62 582.186 90.62C584.893 90.62 587.203 90.0367 589.116 88.87C591.076 87.7033 592.593 86.0933 593.666 84.04L596.466 85.65C595.626 87.33 594.506 88.7767 593.106 89.99C591.706 91.1567 590.096 92.0667 588.276 92.72C586.456 93.3733 584.449 93.7 582.256 93.7Z" fill="#414141"/>
<path d="M278.51 139.4C289.877 139.4 298.677 142.553 304.91 148.86C311.143 155.093 314.26 164.04 314.26 175.7C314.26 187.287 311.143 196.233 304.91 202.54C298.677 208.847 289.877 212 278.51 212H250.46V139.4H278.51ZM277.74 199.9C284.633 199.9 289.803 197.847 293.25 193.74C296.77 189.56 298.53 183.547 298.53 175.7C298.53 167.853 296.77 161.877 293.25 157.77C289.803 153.59 284.633 151.5 277.74 151.5H265.64V199.9H277.74ZM360.873 138.3C368.059 138.3 374.256 139.803 379.463 142.81C384.669 145.817 388.666 150.107 391.453 155.68C394.313 161.253 395.743 167.927 395.743 175.7C395.743 183.473 394.313 190.147 391.453 195.72C388.666 201.293 384.669 205.583 379.463 208.59C374.256 211.597 368.059 213.1 360.873 213.1C353.686 213.1 347.453 211.597 342.173 208.59C336.966 205.583 332.933 201.293 330.073 195.72C327.286 190.147 325.893 183.473 325.893 175.7C325.893 167.927 327.286 161.253 330.073 155.68C332.933 150.107 336.966 145.817 342.173 142.81C347.453 139.803 353.686 138.3 360.873 138.3ZM360.873 150.73C356.766 150.73 353.283 151.683 350.423 153.59C347.563 155.497 345.363 158.32 343.823 162.06C342.356 165.727 341.623 170.273 341.623 175.7C341.623 181.053 342.356 185.6 343.823 189.34C345.363 193.08 347.563 195.903 350.423 197.81C353.283 199.717 356.766 200.67 360.873 200.67C364.906 200.67 368.353 199.717 371.213 197.81C374.073 195.903 376.236 193.08 377.703 189.34C379.243 185.6 380.013 181.053 380.013 175.7C380.013 170.273 379.243 165.727 377.703 162.06C376.236 158.32 374.073 155.497 371.213 153.59C368.353 151.683 364.906 150.73 360.873 150.73ZM473.206 191.98C471.812 196.673 469.612 200.597 466.606 203.75C463.599 206.903 460.042 209.25 455.936 210.79C451.829 212.33 447.319 213.1 442.406 213.1C435.219 213.1 428.986 211.597 423.706 208.59C418.499 205.583 414.466 201.293 411.606 195.72C408.819 190.147 407.426 183.473 407.426 175.7C407.426 167.927 408.819 161.253 411.606 155.68C414.466 150.107 418.499 145.817 423.706 142.81C428.986 139.803 435.146 138.3 442.186 138.3C447.172 138.3 451.682 138.997 455.716 140.39C459.749 141.71 463.159 143.763 465.946 146.55C468.806 149.337 470.896 152.857 472.216 157.11L458.466 162.94C457.219 158.54 455.312 155.423 452.746 153.59C450.179 151.683 446.879 150.73 442.846 150.73C438.886 150.73 435.402 151.683 432.396 153.59C429.462 155.497 427.189 158.32 425.576 162.06C423.962 165.727 423.156 170.273 423.156 175.7C423.156 181.053 423.889 185.6 425.356 189.34C426.896 193.08 429.132 195.903 432.066 197.81C434.999 199.717 438.592 200.67 442.846 200.67C446.806 200.67 450.216 199.607 453.076 197.48C456.009 195.353 458.062 192.127 459.236 187.8L473.206 191.98ZM512.654 138.3C519.254 138.3 525.047 139.437 530.034 141.71C535.02 143.983 539.274 147.357 542.794 151.83L534.324 161.62C531.317 157.807 528.017 155.02 524.424 153.26C520.904 151.427 516.797 150.51 512.104 150.51C509.024 150.51 506.457 150.913 504.404 151.72C502.424 152.527 500.957 153.59 500.004 154.91C499.124 156.23 498.684 157.697 498.684 159.31C498.684 161.29 499.454 162.977 500.994 164.37C502.534 165.69 505.174 166.79 508.914 167.67L522.444 170.75C529.63 172.363 534.764 174.783 537.844 178.01C540.997 181.163 542.574 185.27 542.574 190.33C542.574 195.097 541.327 199.203 538.834 202.65C536.34 206.023 532.857 208.627 528.384 210.46C523.91 212.22 518.777 213.1 512.984 213.1C507.924 213.1 503.267 212.513 499.014 211.34C494.834 210.093 491.094 208.407 487.794 206.28C484.494 204.153 481.744 201.697 479.544 198.91L488.124 188.68C489.81 191.027 491.9 193.117 494.394 194.95C496.887 196.783 499.71 198.25 502.864 199.35C506.09 200.377 509.464 200.89 512.984 200.89C515.99 200.89 518.52 200.56 520.574 199.9C522.7 199.167 524.277 198.177 525.304 196.93C526.404 195.61 526.954 194.033 526.954 192.2C526.954 190.293 526.294 188.68 524.974 187.36C523.727 185.967 521.38 184.903 517.934 184.17L503.194 180.87C498.94 179.843 495.274 178.523 492.194 176.91C489.187 175.223 486.877 173.097 485.264 170.53C483.724 167.89 482.954 164.773 482.954 161.18C482.954 156.853 484.127 152.967 486.474 149.52C488.82 146.073 492.194 143.36 496.594 141.38C501.067 139.327 506.42 138.3 512.654 138.3Z" fill="#414141"/>
<path d="M5.44641 58.7263H216.382" stroke="#414141" stroke-width="3" stroke-linecap="round"/>
<path d="M5 78H215.935" stroke="#414141" stroke-width="3" stroke-linecap="round"/>
<path d="M4.55359 97.2737H215.489" stroke="#414141" stroke-width="3" stroke-linecap="round"/>
<path d="M4.10718 116.547H215.042" stroke="#414141" stroke-width="3" stroke-linecap="round"/>
<path d="M3.66077 135.821H214.596" stroke="#414141" stroke-width="3" stroke-linecap="round"/>
<path d="M3.21436 155.095H214.15" stroke="#414141" stroke-width="3" stroke-linecap="round"/>
<path d="M2.76794 174.369H213.703" stroke="#414141" stroke-width="3" stroke-linecap="round"/>
<path d="M14 194L208 194" stroke="#414141" stroke-width="3" stroke-linecap="round"/>
</svg>
